<?xml version="1.0" encoding="utf-8" standalone="no"?>
<!DOCTYPE svg PUBLIC "-//W3C//DTD SVG 1.1//EN"
  "http://www.w3.org/Graphics/SVG/1.1/DTD/svg11.dtd">
<!-- Created with matplotlib (http://matplotlib.org/) -->
<svg height="576pt" version="1.1" viewBox="0 0 1152 576" width="1152pt" xmlns="http://www.w3.org/2000/svg" xmlns:xlink="http://www.w3.org/1999/xlink">
 <defs>
  <style type="text/css">
*{stroke-linecap:butt;stroke-linejoin:round;}
  </style>
 </defs>
 <g id="figure_1">
  <g id="patch_1">
   <path d="M 0 576 
L 1152 576 
L 1152 0 
L 0 0 
z
" style="fill:#ffffff;"/>
  </g>
  <g id="axes_1">
   <g id="patch_2">
    <path d="M 144 512.64 
L 549.818182 512.64 
L 549.818182 69.12 
L 144 69.12 
z
" style="fill:#ffffff;"/>
   </g>
   <g id="matplotlib.axis_1">
    <g id="xtick_1">
     <g id="line2d_1">
      <defs>
       <path d="M 0 0 
L 0 3.5 
" id="mf657f33ef2" style="stroke:#000000;stroke-width:0.8;"/>
      </defs>
      <g>
       <use style="stroke:#000000;stroke-width:0.8;" x="158.84361" xlink:href="#mf657f33ef2" y="512.64"/>
      </g>
     </g>
     <g id="text_1">
      <!-- −5 -->
      <defs>
       <path d="M 10.59375 35.5 
L 73.1875 35.5 
L 73.1875 27.203125 
L 10.59375 27.203125 
z
" id="DejaVuSans-2212"/>
       <path d="M 10.796875 72.90625 
L 49.515625 72.90625 
L 49.515625 64.59375 
L 19.828125 64.59375 
L 19.828125 46.734375 
Q 21.96875 47.46875 24.109375 47.828125 
Q 26.265625 48.1875 28.421875 48.1875 
Q 40.625 48.1875 47.75 41.5 
Q 54.890625 34.8125 54.890625 23.390625 
Q 54.890625 11.625 47.5625 5.09375 
Q 40.234375 -1.421875 26.90625 -1.421875 
Q 22.3125 -1.421875 17.546875 -0.640625 
Q 12.796875 0.140625 7.71875 1.703125 
L 7.71875 11.625 
Q 12.109375 9.234375 16.796875 8.0625 
Q 21.484375 6.890625 26.703125 6.890625 
Q 35.15625 6.890625 40.078125 11.328125 
Q 45.015625 15.765625 45.015625 23.390625 
Q 45.015625 31 40.078125 35.4375 
Q 35.15625 39.890625 26.703125 39.890625 
Q 22.75 39.890625 18.8125 39.015625 
Q 14.890625 38.140625 10.796875 36.28125 
z
" id="DejaVuSans-35"/>
      </defs>
      <g transform="translate(151.472516 527.238438)scale(0.1 -0.1)">
       <use xlink:href="#DejaVuSans-2212"/>
       <use x="83.789062" xlink:href="#DejaVuSans-35"/>
      </g>
     </g>
    </g>
    <g id="xtick_2">
     <g id="line2d_2">
      <g>
       <use style="stroke:#000000;stroke-width:0.8;" x="209.292635" xlink:href="#mf657f33ef2" y="512.64"/>
      </g>
     </g>
     <g id="text_2">
      <!-- 0 -->
      <defs>
       <path d="M 31.78125 66.40625 
Q 24.171875 66.40625 20.328125 58.90625 
Q 16.5 51.421875 16.5 36.375 
Q 16.5 21.390625 20.328125 13.890625 
Q 24.171875 6.390625 31.78125 6.390625 
Q 39.453125 6.390625 43.28125 13.890625 
Q 47.125 21.390625 47.125 36.375 
Q 47.125 51.421875 43.28125 58.90625 
Q 39.453125 66.40625 31.78125 66.40625 
M 31.78125 74.21875 
Q 44.046875 74.21875 50.515625 64.515625 
Q 56.984375 54.828125 56.984375 36.375 
Q 56.984375 17.96875 50.515625 8.265625 
Q 44.046875 -1.421875 31.78125 -1.421875 
Q 19.53125 -1.421875 13.0625 8.265625 
Q 6.59375 17.96875 6.59375 36.375 
Q 6.59375 54.828125 13.0625 64.515625 
Q 19.53125 74.21875 31.78125 74.21875 
" id="DejaVuSans-30"/>
      </defs>
      <g transform="translate(206.111385 527.238438)scale(0.1 -0.1)">
       <use xlink:href="#DejaVuSans-30"/>
      </g>
     </g>
    </g>
    <g id="xtick_3">
     <g id="line2d_3">
      <g>
       <use style="stroke:#000000;stroke-width:0.8;" x="259.741661" xlink:href="#mf657f33ef2" y="512.64"/>
      </g>
     </g>
     <g id="text_3">
      <!-- 5 -->
      <g transform="translate(256.560411 527.238438)scale(0.1 -0.1)">
       <use xlink:href="#DejaVuSans-35"/>
      </g>
     </g>
    </g>
    <g id="xtick_4">
     <g id="line2d_4">
      <g>
       <use style="stroke:#000000;stroke-width:0.8;" x="310.190686" xlink:href="#mf657f33ef2" y="512.64"/>
      </g>
     </g>
     <g id="text_4">
      <!-- 10 -->
      <defs>
       <path d="M 12.40625 8.296875 
L 28.515625 8.296875 
L 28.515625 63.921875 
L 10.984375 60.40625 
L 10.984375 69.390625 
L 28.421875 72.90625 
L 38.28125 72.90625 
L 38.28125 8.296875 
L 54.390625 8.296875 
L 54.390625 0 
L 12.40625 0 
z
" id="DejaVuSans-31"/>
      </defs>
      <g transform="translate(303.828186 527.238438)scale(0.1 -0.1)">
       <use xlink:href="#DejaVuSans-31"/>
       <use x="63.623047" xlink:href="#DejaVuSans-30"/>
      </g>
     </g>
    </g>
    <g id="xtick_5">
     <g id="line2d_5">
      <g>
       <use style="stroke:#000000;stroke-width:0.8;" x="360.639711" xlink:href="#mf657f33ef2" y="512.64"/>
      </g>
     </g>
     <g id="text_5">
      <!-- 15 -->
      <g transform="translate(354.277211 527.238438)scale(0.1 -0.1)">
       <use xlink:href="#DejaVuSans-31"/>
       <use x="63.623047" xlink:href="#DejaVuSans-35"/>
      </g>
     </g>
    </g>
    <g id="xtick_6">
     <g id="line2d_6">
      <g>
       <use style="stroke:#000000;stroke-width:0.8;" x="411.088737" xlink:href="#mf657f33ef2" y="512.64"/>
      </g>
     </g>
     <g id="text_6">
      <!-- 20 -->
      <defs>
       <path d="M 19.1875 8.296875 
L 53.609375 8.296875 
L 53.609375 0 
L 7.328125 0 
L 7.328125 8.296875 
Q 12.9375 14.109375 22.625 23.890625 
Q 32.328125 33.6875 34.8125 36.53125 
Q 39.546875 41.84375 41.421875 45.53125 
Q 43.3125 49.21875 43.3125 52.78125 
Q 43.3125 58.59375 39.234375 62.25 
Q 35.15625 65.921875 28.609375 65.921875 
Q 23.96875 65.921875 18.8125 64.3125 
Q 13.671875 62.703125 7.8125 59.421875 
L 7.8125 69.390625 
Q 13.765625 71.78125 18.9375 73 
Q 24.125 74.21875 28.421875 74.21875 
Q 39.75 74.21875 46.484375 68.546875 
Q 53.21875 62.890625 53.21875 53.421875 
Q 53.21875 48.921875 51.53125 44.890625 
Q 49.859375 40.875 45.40625 35.40625 
Q 44.1875 33.984375 37.640625 27.21875 
Q 31.109375 20.453125 19.1875 8.296875 
" id="DejaVuSans-32"/>
      </defs>
      <g transform="translate(404.726237 527.238438)scale(0.1 -0.1)">
       <use xlink:href="#DejaVuSans-32"/>
       <use x="63.623047" xlink:href="#DejaVuSans-30"/>
      </g>
     </g>
    </g>
    <g id="xtick_7">
     <g id="line2d_7">
      <g>
       <use style="stroke:#000000;stroke-width:0.8;" x="461.537762" xlink:href="#mf657f33ef2" y="512.64"/>
      </g>
     </g>
     <g id="text_7">
      <!-- 25 -->
      <g transform="translate(455.175262 527.238438)scale(0.1 -0.1)">
       <use xlink:href="#DejaVuSans-32"/>
       <use x="63.623047" xlink:href="#DejaVuSans-35"/>
      </g>
     </g>
    </g>
    <g id="xtick_8">
     <g id="line2d_8">
      <g>
       <use style="stroke:#000000;stroke-width:0.8;" x="511.986787" xlink:href="#mf657f33ef2" y="512.64"/>
      </g>
     </g>
     <g id="text_8">
      <!-- 30 -->
      <defs>
       <path d="M 40.578125 39.3125 
Q 47.65625 37.796875 51.625 33 
Q 55.609375 28.21875 55.609375 21.1875 
Q 55.609375 10.40625 48.1875 4.484375 
Q 40.765625 -1.421875 27.09375 -1.421875 
Q 22.515625 -1.421875 17.65625 -0.515625 
Q 12.796875 0.390625 7.625 2.203125 
L 7.625 11.71875 
Q 11.71875 9.328125 16.59375 8.109375 
Q 21.484375 6.890625 26.8125 6.890625 
Q 36.078125 6.890625 40.9375 10.546875 
Q 45.796875 14.203125 45.796875 21.1875 
Q 45.796875 27.640625 41.28125 31.265625 
Q 36.765625 34.90625 28.71875 34.90625 
L 20.21875 34.90625 
L 20.21875 43.015625 
L 29.109375 43.015625 
Q 36.375 43.015625 40.234375 45.921875 
Q 44.09375 48.828125 44.09375 54.296875 
Q 44.09375 59.90625 40.109375 62.90625 
Q 36.140625 65.921875 28.71875 65.921875 
Q 24.65625 65.921875 20.015625 65.03125 
Q 15.375 64.15625 9.8125 62.3125 
L 9.8125 71.09375 
Q 15.4375 72.65625 20.34375 73.4375 
Q 25.25 74.21875 29.59375 74.21875 
Q 40.828125 74.21875 47.359375 69.109375 
Q 53.90625 64.015625 53.90625 55.328125 
Q 53.90625 49.265625 50.4375 45.09375 
Q 46.96875 40.921875 40.578125 39.3125 
" id="DejaVuSans-33"/>
      </defs>
      <g transform="translate(505.624287 527.238438)scale(0.1 -0.1)">
       <use xlink:href="#DejaVuSans-33"/>
       <use x="63.623047" xlink:href="#DejaVuSans-30"/>
      </g>
     </g>
    </g>
    <g id="text_9">
     <!-- Avg Max Temperature (°C) -->
     <defs>
      <path d="M 34.1875 63.1875 
L 20.796875 26.90625 
L 47.609375 26.90625 
z
M 28.609375 72.90625 
L 39.796875 72.90625 
L 67.578125 0 
L 57.328125 0 
L 50.6875 18.703125 
L 17.828125 18.703125 
L 11.1875 0 
L 0.78125 0 
z
" id="DejaVuSans-41"/>
      <path d="M 2.984375 54.6875 
L 12.5 54.6875 
L 29.59375 8.796875 
L 46.6875 54.6875 
L 56.203125 54.6875 
L 35.6875 0 
L 23.484375 0 
z
" id="DejaVuSans-76"/>
      <path d="M 45.40625 27.984375 
Q 45.40625 37.75 41.375 43.109375 
Q 37.359375 48.484375 30.078125 48.484375 
Q 22.859375 48.484375 18.828125 43.109375 
Q 14.796875 37.75 14.796875 27.984375 
Q 14.796875 18.265625 18.828125 12.890625 
Q 22.859375 7.515625 30.078125 7.515625 
Q 37.359375 7.515625 41.375 12.890625 
Q 45.40625 18.265625 45.40625 27.984375 
M 54.390625 6.78125 
Q 54.390625 -7.171875 48.1875 -13.984375 
Q 42 -20.796875 29.203125 -20.796875 
Q 24.46875 -20.796875 20.265625 -20.09375 
Q 16.0625 -19.390625 12.109375 -17.921875 
L 12.109375 -9.1875 
Q 16.0625 -11.328125 19.921875 -12.34375 
Q 23.78125 -13.375 27.78125 -13.375 
Q 36.625 -13.375 41.015625 -8.765625 
Q 45.40625 -4.15625 45.40625 5.171875 
L 45.40625 9.625 
Q 42.625 4.78125 38.28125 2.390625 
Q 33.9375 0 27.875 0 
Q 17.828125 0 11.671875 7.65625 
Q 5.515625 15.328125 5.515625 27.984375 
Q 5.515625 40.671875 11.671875 48.328125 
Q 17.828125 56 27.875 56 
Q 33.9375 56 38.28125 53.609375 
Q 42.625 51.21875 45.40625 46.390625 
L 45.40625 54.6875 
L 54.390625 54.6875 
z
" id="DejaVuSans-67"/>
      <path id="DejaVuSans-20"/>
      <path d="M 9.8125 72.90625 
L 24.515625 72.90625 
L 43.109375 23.296875 
L 61.8125 72.90625 
L 76.515625 72.90625 
L 76.515625 0 
L 66.890625 0 
L 66.890625 64.015625 
L 48.09375 14.015625 
L 38.1875 14.015625 
L 19.390625 64.015625 
L 19.390625 0 
L 9.8125 0 
z
" id="DejaVuSans-4d"/>
      <path d="M 34.28125 27.484375 
Q 23.390625 27.484375 19.1875 25 
Q 14.984375 22.515625 14.984375 16.5 
Q 14.984375 11.71875 18.140625 8.90625 
Q 21.296875 6.109375 26.703125 6.109375 
Q 34.1875 6.109375 38.703125 11.40625 
Q 43.21875 16.703125 43.21875 25.484375 
L 43.21875 27.484375 
z
M 52.203125 31.203125 
L 52.203125 0 
L 43.21875 0 
L 43.21875 8.296875 
Q 40.140625 3.328125 35.546875 0.953125 
Q 30.953125 -1.421875 24.3125 -1.421875 
Q 15.921875 -1.421875 10.953125 3.296875 
Q 6 8.015625 6 15.921875 
Q 6 25.140625 12.171875 29.828125 
Q 18.359375 34.515625 30.609375 34.515625 
L 43.21875 34.515625 
L 43.21875 35.40625 
Q 43.21875 41.609375 39.140625 45 
Q 35.0625 48.390625 27.6875 48.390625 
Q 23 48.390625 18.546875 47.265625 
Q 14.109375 46.140625 10.015625 43.890625 
L 10.015625 52.203125 
Q 14.9375 54.109375 19.578125 55.046875 
Q 24.21875 56 28.609375 56 
Q 40.484375 56 46.34375 49.84375 
Q 52.203125 43.703125 52.203125 31.203125 
" id="DejaVuSans-61"/>
      <path d="M 54.890625 54.6875 
L 35.109375 28.078125 
L 55.90625 0 
L 45.3125 0 
L 29.390625 21.484375 
L 13.484375 0 
L 2.875 0 
L 24.125 28.609375 
L 4.6875 54.6875 
L 15.28125 54.6875 
L 29.78125 35.203125 
L 44.28125 54.6875 
z
" id="DejaVuSans-78"/>
      <path d="M -0.296875 72.90625 
L 61.375 72.90625 
L 61.375 64.59375 
L 35.5 64.59375 
L 35.5 0 
L 25.59375 0 
L 25.59375 64.59375 
L -0.296875 64.59375 
z
" id="DejaVuSans-54"/>
      <path d="M 56.203125 29.59375 
L 56.203125 25.203125 
L 14.890625 25.203125 
Q 15.484375 15.921875 20.484375 11.0625 
Q 25.484375 6.203125 34.421875 6.203125 
Q 39.59375 6.203125 44.453125 7.46875 
Q 49.3125 8.734375 54.109375 11.28125 
L 54.109375 2.78125 
Q 49.265625 0.734375 44.1875 -0.34375 
Q 39.109375 -1.421875 33.890625 -1.421875 
Q 20.796875 -1.421875 13.15625 6.1875 
Q 5.515625 13.8125 5.515625 26.8125 
Q 5.515625 40.234375 12.765625 48.109375 
Q 20.015625 56 32.328125 56 
Q 43.359375 56 49.78125 48.890625 
Q 56.203125 41.796875 56.203125 29.59375 
M 47.21875 32.234375 
Q 47.125 39.59375 43.09375 43.984375 
Q 39.0625 48.390625 32.421875 48.390625 
Q 24.90625 48.390625 20.390625 44.140625 
Q 15.875 39.890625 15.1875 32.171875 
z
" id="DejaVuSans-65"/>
      <path d="M 52 44.1875 
Q 55.375 50.25 60.0625 53.125 
Q 64.75 56 71.09375 56 
Q 79.640625 56 84.28125 50.015625 
Q 88.921875 44.046875 88.921875 33.015625 
L 88.921875 0 
L 79.890625 0 
L 79.890625 32.71875 
Q 79.890625 40.578125 77.09375 44.375 
Q 74.3125 48.1875 68.609375 48.1875 
Q 61.625 48.1875 57.5625 43.546875 
Q 53.515625 38.921875 53.515625 30.90625 
L 53.515625 0 
L 44.484375 0 
L 44.484375 32.71875 
Q 44.484375 40.625 41.703125 44.40625 
Q 38.921875 48.1875 33.109375 48.1875 
Q 26.21875 48.1875 22.15625 43.53125 
Q 18.109375 38.875 18.109375 30.90625 
L 18.109375 0 
L 9.078125 0 
L 9.078125 54.6875 
L 18.109375 54.6875 
L 18.109375 46.1875 
Q 21.1875 51.21875 25.484375 53.609375 
Q 29.78125 56 35.6875 56 
Q 41.65625 56 45.828125 52.96875 
Q 50 49.953125 52 44.1875 
" id="DejaVuSans-6d"/>
      <path d="M 18.109375 8.203125 
L 18.109375 -20.796875 
L 9.078125 -20.796875 
L 9.078125 54.6875 
L 18.109375 54.6875 
L 18.109375 46.390625 
Q 20.953125 51.265625 25.265625 53.625 
Q 29.59375 56 35.59375 56 
Q 45.5625 56 51.78125 48.09375 
Q 58.015625 40.1875 58.015625 27.296875 
Q 58.015625 14.40625 51.78125 6.484375 
Q 45.5625 -1.421875 35.59375 -1.421875 
Q 29.59375 -1.421875 25.265625 0.953125 
Q 20.953125 3.328125 18.109375 8.203125 
M 48.6875 27.296875 
Q 48.6875 37.203125 44.609375 42.84375 
Q 40.53125 48.484375 33.40625 48.484375 
Q 26.265625 48.484375 22.1875 42.84375 
Q 18.109375 37.203125 18.109375 27.296875 
Q 18.109375 17.390625 22.1875 11.75 
Q 26.265625 6.109375 33.40625 6.109375 
Q 40.53125 6.109375 44.609375 11.75 
Q 48.6875 17.390625 48.6875 27.296875 
" id="DejaVuSans-70"/>
      <path d="M 41.109375 46.296875 
Q 39.59375 47.171875 37.8125 47.578125 
Q 36.03125 48 33.890625 48 
Q 26.265625 48 22.1875 43.046875 
Q 18.109375 38.09375 18.109375 28.8125 
L 18.109375 0 
L 9.078125 0 
L 9.078125 54.6875 
L 18.109375 54.6875 
L 18.109375 46.1875 
Q 20.953125 51.171875 25.484375 53.578125 
Q 30.03125 56 36.53125 56 
Q 37.453125 56 38.578125 55.875 
Q 39.703125 55.765625 41.0625 55.515625 
z
" id="DejaVuSans-72"/>
      <path d="M 18.3125 70.21875 
L 18.3125 54.6875 
L 36.8125 54.6875 
L 36.8125 47.703125 
L 18.3125 47.703125 
L 18.3125 18.015625 
Q 18.3125 11.328125 20.140625 9.421875 
Q 21.96875 7.515625 27.59375 7.515625 
L 36.8125 7.515625 
L 36.8125 0 
L 27.59375 0 
Q 17.1875 0 13.234375 3.875 
Q 9.28125 7.765625 9.28125 18.015625 
L 9.28125 47.703125 
L 2.6875 47.703125 
L 2.6875 54.6875 
L 9.28125 54.6875 
L 9.28125 70.21875 
z
" id="DejaVuSans-74"/>
      <path d="M 8.5 21.578125 
L 8.5 54.6875 
L 17.484375 54.6875 
L 17.484375 21.921875 
Q 17.484375 14.15625 20.5 10.265625 
Q 23.53125 6.390625 29.59375 6.390625 
Q 36.859375 6.390625 41.078125 11.03125 
Q 45.3125 15.671875 45.3125 23.6875 
L 45.3125 54.6875 
L 54.296875 54.6875 
L 54.296875 0 
L 45.3125 0 
L 45.3125 8.40625 
Q 42.046875 3.421875 37.71875 1 
Q 33.40625 -1.421875 27.6875 -1.421875 
Q 18.265625 -1.421875 13.375 4.4375 
Q 8.5 10.296875 8.5 21.578125 
M 31.109375 56 
z
" id="DejaVuSans-75"/>
      <path d="M 31 75.875 
Q 24.46875 64.65625 21.28125 53.65625 
Q 18.109375 42.671875 18.109375 31.390625 
Q 18.109375 20.125 21.3125 9.0625 
Q 24.515625 -2 31 -13.1875 
L 23.1875 -13.1875 
Q 15.875 -1.703125 12.234375 9.375 
Q 8.59375 20.453125 8.59375 31.390625 
Q 8.59375 42.28125 12.203125 53.3125 
Q 15.828125 64.359375 23.1875 75.875 
z
" id="DejaVuSans-28"/>
      <path d="M 25 67.921875 
Q 21.09375 67.921875 18.40625 65.203125 
Q 15.71875 62.5 15.71875 58.59375 
Q 15.71875 54.734375 18.40625 52.078125 
Q 21.09375 49.421875 25 49.421875 
Q 28.90625 49.421875 31.59375 52.078125 
Q 34.28125 54.734375 34.28125 58.59375 
Q 34.28125 62.453125 31.5625 65.1875 
Q 28.859375 67.921875 25 67.921875 
M 25 74.21875 
Q 28.125 74.21875 31 73.015625 
Q 33.890625 71.828125 35.984375 69.578125 
Q 38.234375 67.390625 39.359375 64.59375 
Q 40.484375 61.8125 40.484375 58.59375 
Q 40.484375 52.15625 35.96875 47.6875 
Q 31.453125 43.21875 24.90625 43.21875 
Q 18.3125 43.21875 13.90625 47.609375 
Q 9.515625 52 9.515625 58.59375 
Q 9.515625 65.140625 14 69.671875 
Q 18.5 74.21875 25 74.21875 
" id="DejaVuSans-b0"/>
      <path d="M 64.40625 67.28125 
L 64.40625 56.890625 
Q 59.421875 61.53125 53.78125 63.8125 
Q 48.140625 66.109375 41.796875 66.109375 
Q 29.296875 66.109375 22.65625 58.46875 
Q 16.015625 50.828125 16.015625 36.375 
Q 16.015625 21.96875 22.65625 14.328125 
Q 29.296875 6.6875 41.796875 6.6875 
Q 48.140625 6.6875 53.78125 8.984375 
Q 59.421875 11.28125 64.40625 15.921875 
L 64.40625 5.609375 
Q 59.234375 2.09375 53.4375 0.328125 
Q 47.65625 -1.421875 41.21875 -1.421875 
Q 24.65625 -1.421875 15.125 8.703125 
Q 5.609375 18.84375 5.609375 36.375 
Q 5.609375 53.953125 15.125 64.078125 
Q 24.65625 74.21875 41.21875 74.21875 
Q 47.75 74.21875 53.53125 72.484375 
Q 59.328125 70.75 64.40625 67.28125 
" id="DejaVuSans-43"/>
      <path d="M 8.015625 75.875 
L 15.828125 75.875 
Q 23.140625 64.359375 26.78125 53.3125 
Q 30.421875 42.28125 30.421875 31.390625 
Q 30.421875 20.453125 26.78125 9.375 
Q 23.140625 -1.703125 15.828125 -13.1875 
L 8.015625 -13.1875 
Q 14.5 -2 17.703125 9.0625 
Q 20.90625 20.125 20.90625 31.390625 
Q 20.90625 42.671875 17.703125 53.65625 
Q 14.5 64.65625 8.015625 75.875 
" id="DejaVuSans-29"/>
     </defs>
     <g transform="translate(279.744247 540.916563)scale(0.1 -0.1)">
      <use xlink:href="#DejaVuSans-41"/>
      <use x="68.330078" xlink:href="#DejaVuSans-76"/>
      <use x="127.509766" xlink:href="#DejaVuSans-67"/>
      <use x="190.986328" xlink:href="#DejaVuSans-20"/>
      <use x="222.773438" xlink:href="#DejaVuSans-4d"/>
      <use x="309.052734" xlink:href="#DejaVuSans-61"/>
      <use x="370.332031" xlink:href="#DejaVuSans-78"/>
      <use x="429.511719" xlink:href="#DejaVuSans-20"/>
      <use x="461.298828" xlink:href="#DejaVuSans-54"/>
      <use x="522.117188" xlink:href="#DejaVuSans-65"/>
      <use x="583.640625" xlink:href="#DejaVuSans-6d"/>
      <use x="681.052734" xlink:href="#DejaVuSans-70"/>
      <use x="744.529297" xlink:href="#DejaVuSans-65"/>
      <use x="806.052734" xlink:href="#DejaVuSans-72"/>
      <use x="847.166016" xlink:href="#DejaVuSans-61"/>
      <use x="908.445312" xlink:href="#DejaVuSans-74"/>
      <use x="947.654297" xlink:href="#DejaVuSans-75"/>
      <use x="1011.033203" xlink:href="#DejaVuSans-72"/>
      <use x="1052.115234" xlink:href="#DejaVuSans-65"/>
      <use x="1113.638672" xlink:href="#DejaVuSans-20"/>
      <use x="1145.425781" xlink:href="#DejaVuSans-28"/>
      <use x="1184.439453" xlink:href="#DejaVuSans-b0"/>
      <use x="1234.439453" xlink:href="#DejaVuSans-43"/>
      <use x="1304.263672" xlink:href="#DejaVuSans-29"/>
     </g>
    </g>
   </g>
   <g id="matplotlib.axis_2">
    <g id="ytick_1">
     <g id="line2d_9">
      <defs>
       <path d="M 0 0 
L -3.5 0 
" id="mef8b97686e" style="stroke:#000000;stroke-width:0.8;"/>
      </defs>
      <g>
       <use style="stroke:#000000;stroke-width:0.8;" x="144" xlink:href="#mef8b97686e" y="492.512513"/>
      </g>
     </g>
     <g id="text_10">
      <!-- 0 -->
      <g transform="translate(130.6375 496.311732)scale(0.1 -0.1)">
       <use xlink:href="#DejaVuSans-30"/>
      </g>
     </g>
    </g>
    <g id="ytick_2">
     <g id="line2d_10">
      <g>
       <use style="stroke:#000000;stroke-width:0.8;" x="144" xlink:href="#mef8b97686e" y="435.27743"/>
      </g>
     </g>
     <g id="text_11">
      <!-- 1000 -->
      <g transform="translate(111.55 439.076649)scale(0.1 -0.1)">
       <use xlink:href="#DejaVuSans-31"/>
       <use x="63.623047" xlink:href="#DejaVuSans-30"/>
       <use x="127.246094" xlink:href="#DejaVuSans-30"/>
       <use x="190.869141" xlink:href="#DejaVuSans-30"/>
      </g>
     </g>
    </g>
    <g id="ytick_3">
     <g id="line2d_11">
      <g>
       <use style="stroke:#000000;stroke-width:0.8;" x="144" xlink:href="#mef8b97686e" y="378.042347"/>
      </g>
     </g>
     <g id="text_12">
      <!-- 2000 -->
      <g transform="translate(111.55 381.841565)scale(0.1 -0.1)">
       <use xlink:href="#DejaVuSans-32"/>
       <use x="63.623047" xlink:href="#DejaVuSans-30"/>
       <use x="127.246094" xlink:href="#DejaVuSans-30"/>
       <use x="190.869141" xlink:href="#DejaVuSans-30"/>
      </g>
     </g>
    </g>
    <g id="ytick_4">
     <g id="line2d_12">
      <g>
       <use style="stroke:#000000;stroke-width:0.8;" x="144" xlink:href="#mef8b97686e" y="320.807264"/>
      </g>
     </g>
     <g id="text_13">
      <!-- 3000 -->
      <g transform="translate(111.55 324.606482)scale(0.1 -0.1)">
       <use xlink:href="#DejaVuSans-33"/>
       <use x="63.623047" xlink:href="#DejaVuSans-30"/>
       <use x="127.246094" xlink:href="#DejaVuSans-30"/>
       <use x="190.869141" xlink:href="#DejaVuSans-30"/>
      </g>
     </g>
    </g>
    <g id="ytick_5">
     <g id="line2d_13">
      <g>
       <use style="stroke:#000000;stroke-width:0.8;" x="144" xlink:href="#mef8b97686e" y="263.57218"/>
      </g>
     </g>
     <g id="text_14">
      <!-- 4000 -->
      <defs>
       <path d="M 37.796875 64.3125 
L 12.890625 25.390625 
L 37.796875 25.390625 
z
M 35.203125 72.90625 
L 47.609375 72.90625 
L 47.609375 25.390625 
L 58.015625 25.390625 
L 58.015625 17.1875 
L 47.609375 17.1875 
L 47.609375 0 
L 37.796875 0 
L 37.796875 17.1875 
L 4.890625 17.1875 
L 4.890625 26.703125 
z
" id="DejaVuSans-34"/>
      </defs>
      <g transform="translate(111.55 267.371399)scale(0.1 -0.1)">
       <use xlink:href="#DejaVuSans-34"/>
       <use x="63.623047" xlink:href="#DejaVuSans-30"/>
       <use x="127.246094" xlink:href="#DejaVuSans-30"/>
       <use x="190.869141" xlink:href="#DejaVuSans-30"/>
      </g>
     </g>
    </g>
    <g id="ytick_6">
     <g id="line2d_14">
      <g>
       <use style="stroke:#000000;stroke-width:0.8;" x="144" xlink:href="#mef8b97686e" y="206.337097"/>
      </g>
     </g>
     <g id="text_15">
      <!-- 5000 -->
      <g transform="translate(111.55 210.136316)scale(0.1 -0.1)">
       <use xlink:href="#DejaVuSans-35"/>
       <use x="63.623047" xlink:href="#DejaVuSans-30"/>
       <use x="127.246094" xlink:href="#DejaVuSans-30"/>
       <use x="190.869141" xlink:href="#DejaVuSans-30"/>
      </g>
     </g>
    </g>
    <g id="ytick_7">
     <g id="line2d_15">
      <g>
       <use style="stroke:#000000;stroke-width:0.8;" x="144" xlink:href="#mef8b97686e" y="149.102014"/>
      </g>
     </g>
     <g id="text_16">
      <!-- 6000 -->
      <defs>
       <path d="M 33.015625 40.375 
Q 26.375 40.375 22.484375 35.828125 
Q 18.609375 31.296875 18.609375 23.390625 
Q 18.609375 15.53125 22.484375 10.953125 
Q 26.375 6.390625 33.015625 6.390625 
Q 39.65625 6.390625 43.53125 10.953125 
Q 47.40625 15.53125 47.40625 23.390625 
Q 47.40625 31.296875 43.53125 35.828125 
Q 39.65625 40.375 33.015625 40.375 
M 52.59375 71.296875 
L 52.59375 62.3125 
Q 48.875 64.0625 45.09375 64.984375 
Q 41.3125 65.921875 37.59375 65.921875 
Q 27.828125 65.921875 22.671875 59.328125 
Q 17.53125 52.734375 16.796875 39.40625 
Q 19.671875 43.65625 24.015625 45.921875 
Q 28.375 48.1875 33.59375 48.1875 
Q 44.578125 48.1875 50.953125 41.515625 
Q 57.328125 34.859375 57.328125 23.390625 
Q 57.328125 12.15625 50.6875 5.359375 
Q 44.046875 -1.421875 33.015625 -1.421875 
Q 20.359375 -1.421875 13.671875 8.265625 
Q 6.984375 17.96875 6.984375 36.375 
Q 6.984375 53.65625 15.1875 63.9375 
Q 23.390625 74.21875 37.203125 74.21875 
Q 40.921875 74.21875 44.703125 73.484375 
Q 48.484375 72.75 52.59375 71.296875 
" id="DejaVuSans-36"/>
      </defs>
      <g transform="translate(111.55 152.901233)scale(0.1 -0.1)">
       <use xlink:href="#DejaVuSans-36"/>
       <use x="63.623047" xlink:href="#DejaVuSans-30"/>
       <use x="127.246094" xlink:href="#DejaVuSans-30"/>
       <use x="190.869141" xlink:href="#DejaVuSans-30"/>
      </g>
     </g>
    </g>
    <g id="ytick_8">
     <g id="line2d_16">
      <g>
       <use style="stroke:#000000;stroke-width:0.8;" x="144" xlink:href="#mef8b97686e" y="91.866931"/>
      </g>
     </g>
     <g id="text_17">
      <!-- 7000 -->
      <defs>
       <path d="M 8.203125 72.90625 
L 55.078125 72.90625 
L 55.078125 68.703125 
L 28.609375 0 
L 18.3125 0 
L 43.21875 64.59375 
L 8.203125 64.59375 
z
" id="DejaVuSans-37"/>
      </defs>
      <g transform="translate(111.55 95.66615)scale(0.1 -0.1)">
       <use xlink:href="#DejaVuSans-37"/>
       <use x="63.623047" xlink:href="#DejaVuSans-30"/>
       <use x="127.246094" xlink:href="#DejaVuSans-30"/>
       <use x="190.869141" xlink:href="#DejaVuSans-30"/>
      </g>
     </g>
    </g>
    <g id="text_18">
     <!-- Population Density (people/km²) -->
     <defs>
      <path d="M 19.671875 64.796875 
L 19.671875 37.40625 
L 32.078125 37.40625 
Q 38.96875 37.40625 42.71875 40.96875 
Q 46.484375 44.53125 46.484375 51.125 
Q 46.484375 57.671875 42.71875 61.234375 
Q 38.96875 64.796875 32.078125 64.796875 
z
M 9.8125 72.90625 
L 32.078125 72.90625 
Q 44.34375 72.90625 50.609375 67.359375 
Q 56.890625 61.8125 56.890625 51.125 
Q 56.890625 40.328125 50.609375 34.8125 
Q 44.34375 29.296875 32.078125 29.296875 
L 19.671875 29.296875 
L 19.671875 0 
L 9.8125 0 
z
" id="DejaVuSans-50"/>
      <path d="M 30.609375 48.390625 
Q 23.390625 48.390625 19.1875 42.75 
Q 14.984375 37.109375 14.984375 27.296875 
Q 14.984375 17.484375 19.15625 11.84375 
Q 23.34375 6.203125 30.609375 6.203125 
Q 37.796875 6.203125 41.984375 11.859375 
Q 46.1875 17.53125 46.1875 27.296875 
Q 46.1875 37.015625 41.984375 42.703125 
Q 37.796875 48.390625 30.609375 48.390625 
M 30.609375 56 
Q 42.328125 56 49.015625 48.375 
Q 55.71875 40.765625 55.71875 27.296875 
Q 55.71875 13.875 49.015625 6.21875 
Q 42.328125 -1.421875 30.609375 -1.421875 
Q 18.84375 -1.421875 12.171875 6.21875 
Q 5.515625 13.875 5.515625 27.296875 
Q 5.515625 40.765625 12.171875 48.375 
Q 18.84375 56 30.609375 56 
" id="DejaVuSans-6f"/>
      <path d="M 9.421875 75.984375 
L 18.40625 75.984375 
L 18.40625 0 
L 9.421875 0 
z
" id="DejaVuSans-6c"/>
      <path d="M 9.421875 54.6875 
L 18.40625 54.6875 
L 18.40625 0 
L 9.421875 0 
z
M 9.421875 75.984375 
L 18.40625 75.984375 
L 18.40625 64.59375 
L 9.421875 64.59375 
z
" id="DejaVuSans-69"/>
      <path d="M 54.890625 33.015625 
L 54.890625 0 
L 45.90625 0 
L 45.90625 32.71875 
Q 45.90625 40.484375 42.875 44.328125 
Q 39.84375 48.1875 33.796875 48.1875 
Q 26.515625 48.1875 22.3125 43.546875 
Q 18.109375 38.921875 18.109375 30.90625 
L 18.109375 0 
L 9.078125 0 
L 9.078125 54.6875 
L 18.109375 54.6875 
L 18.109375 46.1875 
Q 21.34375 51.125 25.703125 53.5625 
Q 30.078125 56 35.796875 56 
Q 45.21875 56 50.046875 50.171875 
Q 54.890625 44.34375 54.890625 33.015625 
" id="DejaVuSans-6e"/>
      <path d="M 19.671875 64.796875 
L 19.671875 8.109375 
L 31.59375 8.109375 
Q 46.6875 8.109375 53.6875 14.9375 
Q 60.6875 21.78125 60.6875 36.53125 
Q 60.6875 51.171875 53.6875 57.984375 
Q 46.6875 64.796875 31.59375 64.796875 
z
M 9.8125 72.90625 
L 30.078125 72.90625 
Q 51.265625 72.90625 61.171875 64.09375 
Q 71.09375 55.28125 71.09375 36.53125 
Q 71.09375 17.671875 61.125 8.828125 
Q 51.171875 0 30.078125 0 
L 9.8125 0 
z
" id="DejaVuSans-44"/>
      <path d="M 44.28125 53.078125 
L 44.28125 44.578125 
Q 40.484375 46.53125 36.375 47.5 
Q 32.28125 48.484375 27.875 48.484375 
Q 21.1875 48.484375 17.84375 46.4375 
Q 14.5 44.390625 14.5 40.28125 
Q 14.5 37.15625 16.890625 35.375 
Q 19.28125 33.59375 26.515625 31.984375 
L 29.59375 31.296875 
Q 39.15625 29.25 43.1875 25.515625 
Q 47.21875 21.78125 47.21875 15.09375 
Q 47.21875 7.46875 41.1875 3.015625 
Q 35.15625 -1.421875 24.609375 -1.421875 
Q 20.21875 -1.421875 15.453125 -0.5625 
Q 10.6875 0.296875 5.421875 2 
L 5.421875 11.28125 
Q 10.40625 8.6875 15.234375 7.390625 
Q 20.0625 6.109375 24.8125 6.109375 
Q 31.15625 6.109375 34.5625 8.28125 
Q 37.984375 10.453125 37.984375 14.40625 
Q 37.984375 18.0625 35.515625 20.015625 
Q 33.0625 21.96875 24.703125 23.78125 
L 21.578125 24.515625 
Q 13.234375 26.265625 9.515625 29.90625 
Q 5.8125 33.546875 5.8125 39.890625 
Q 5.8125 47.609375 11.28125 51.796875 
Q 16.75 56 26.8125 56 
Q 31.78125 56 36.171875 55.265625 
Q 40.578125 54.546875 44.28125 53.078125 
" id="DejaVuSans-73"/>
      <path d="M 32.171875 -5.078125 
Q 28.375 -14.84375 24.75 -17.8125 
Q 21.140625 -20.796875 15.09375 -20.796875 
L 7.90625 -20.796875 
L 7.90625 -13.28125 
L 13.1875 -13.28125 
Q 16.890625 -13.28125 18.9375 -11.515625 
Q 21 -9.765625 23.484375 -3.21875 
L 25.09375 0.875 
L 2.984375 54.6875 
L 12.5 54.6875 
L 29.59375 11.921875 
L 46.6875 54.6875 
L 56.203125 54.6875 
z
" id="DejaVuSans-79"/>
      <path d="M 25.390625 72.90625 
L 33.6875 72.90625 
L 8.296875 -9.28125 
L 0 -9.28125 
z
" id="DejaVuSans-2f"/>
      <path d="M 9.078125 75.984375 
L 18.109375 75.984375 
L 18.109375 31.109375 
L 44.921875 54.6875 
L 56.390625 54.6875 
L 27.390625 29.109375 
L 57.625 0 
L 45.90625 0 
L 18.109375 26.703125 
L 18.109375 0 
L 9.078125 0 
z
" id="DejaVuSans-6b"/>
      <path d="M 13.09375 38.1875 
L 33.796875 38.1875 
L 33.796875 32.625 
L 4.59375 32.625 
L 4.59375 37.984375 
Q 6.25 39.5 9.328125 42.234375 
Q 26.125 57.125 26.125 61.71875 
Q 26.125 64.9375 23.578125 66.90625 
Q 21.046875 68.890625 16.890625 68.890625 
Q 14.359375 68.890625 11.375 68.03125 
Q 8.40625 67.1875 4.890625 65.484375 
L 4.890625 71.484375 
Q 8.640625 72.859375 11.890625 73.53125 
Q 15.140625 74.21875 17.921875 74.21875 
Q 25 74.21875 29.25 71 
Q 33.5 67.78125 33.5 62.5 
Q 33.5 55.71875 17.328125 41.84375 
Q 14.59375 39.5 13.09375 38.1875 
" id="DejaVuSans-b2"/>
     </defs>
     <g transform="translate(105.470312 371.818281)rotate(-90)scale(0.1 -0.1)">
      <use xlink:href="#DejaVuSans-50"/>
      <use x="60.255859" xlink:href="#DejaVuSans-6f"/>
      <use x="121.4375" xlink:href="#DejaVuSans-70"/>
      <use x="184.914062" xlink:href="#DejaVuSans-75"/>
      <use x="248.292969" xlink:href="#DejaVuSans-6c"/>
      <use x="276.076172" xlink:href="#DejaVuSans-61"/>
      <use x="337.355469" xlink:href="#DejaVuSans-74"/>
      <use x="376.564453" xlink:href="#DejaVuSans-69"/>
      <use x="404.347656" xlink:href="#DejaVuSans-6f"/>
      <use x="465.529297" xlink:href="#DejaVuSans-6e"/>
      <use x="528.908203" xlink:href="#DejaVuSans-20"/>
      <use x="560.695312" xlink:href="#DejaVuSans-44"/>
      <use x="637.697266" xlink:href="#DejaVuSans-65"/>
      <use x="699.220703" xlink:href="#DejaVuSans-6e"/>
      <use x="762.599609" xlink:href="#DejaVuSans-73"/>
      <use x="814.699219" xlink:href="#DejaVuSans-69"/>
      <use x="842.482422" xlink:href="#DejaVuSans-74"/>
      <use x="881.691406" xlink:href="#DejaVuSans-79"/>
      <use x="940.871094" xlink:href="#DejaVuSans-20"/>
      <use x="972.658203" xlink:href="#DejaVuSans-28"/>
      <use x="1011.671875" xlink:href="#DejaVuSans-70"/>
      <use x="1075.148438" xlink:href="#DejaVuSans-65"/>
      <use x="1136.671875" xlink:href="#DejaVuSans-6f"/>
      <use x="1197.853516" xlink:href="#DejaVuSans-70"/>
      <use x="1261.330078" xlink:href="#DejaVuSans-6c"/>
      <use x="1289.113281" xlink:href="#DejaVuSans-65"/>
      <use x="1350.636719" xlink:href="#DejaVuSans-2f"/>
      <use x="1384.328125" xlink:href="#DejaVuSans-6b"/>
      <use x="1442.238281" xlink:href="#DejaVuSans-6d"/>
      <use x="1539.650391" xlink:href="#DejaVuSans-b2"/>
      <use x="1579.738281" xlink:href="#DejaVuSans-29"/>
     </g>
    </g>
   </g>
   <g id="line2d_17">
    <defs>
     <path d="M 0 1.5 
C 0.397805 1.5 0.77937 1.341951 1.06066 1.06066 
C 1.341951 0.77937 1.5 0.397805 1.5 0 
C 1.5 -0.397805 1.341951 -0.77937 1.06066 -1.06066 
C 0.77937 -1.341951 0.397805 -1.5 0 -1.5 
C -0.397805 -1.5 -0.77937 -1.341951 -1.06066 -1.06066 
C -1.341951 -0.77937 -1.5 -0.397805 -1.5 0 
C -1.5 0.397805 -1.341951 0.77937 -1.06066 1.06066 
C -0.77937 1.341951 -0.397805 1.5 0 1.5 
z
" id="m10d3f4f3c2" style="stroke:#0000ff;"/>
    </defs>
    <g clip-path="url(#p47c0339876)">
     <use style="fill:#0000ff;stroke:#0000ff;" x="331.907264" xlink:href="#m10d3f4f3c2" y="416.445521"/>
     <use style="fill:#0000ff;stroke:#0000ff;" x="321.272702" xlink:href="#m10d3f4f3c2" y="424.586695"/>
     <use style="fill:#0000ff;stroke:#0000ff;" x="368.537878" xlink:href="#m10d3f4f3c2" y="472.167121"/>
     <use style="fill:#0000ff;stroke:#0000ff;" x="349.305497" xlink:href="#m10d3f4f3c2" y="351.513718"/>
     <use style="fill:#0000ff;stroke:#0000ff;" x="349.185301" xlink:href="#m10d3f4f3c2" y="439.799001"/>
     <use style="fill:#0000ff;stroke:#0000ff;" x="345.343344" xlink:href="#m10d3f4f3c2" y="482.297481"/>
     <use style="fill:#0000ff;stroke:#0000ff;" x="372.506698" xlink:href="#m10d3f4f3c2" y="404.70999"/>
     <use style="fill:#0000ff;stroke:#0000ff;" x="344.895684" xlink:href="#m10d3f4f3c2" y="407.811066"/>
     <use style="fill:#0000ff;stroke:#0000ff;" x="362.191989" xlink:href="#m10d3f4f3c2" y="192.151755"/>
     <use style="fill:#0000ff;stroke:#0000ff;" x="361.942767" xlink:href="#m10d3f4f3c2" y="257.246043"/>
     <use style="fill:#0000ff;stroke:#0000ff;" x="329.746769" xlink:href="#m10d3f4f3c2" y="467.887587"/>
     <use style="fill:#0000ff;stroke:#0000ff;" x="307.359476" xlink:href="#m10d3f4f3c2" y="478.889316"/>
     <use style="fill:#0000ff;stroke:#0000ff;" x="162.446281" xlink:href="#m10d3f4f3c2" y="485.139093"/>
     <use style="fill:#0000ff;stroke:#0000ff;" x="361.115978" xlink:href="#m10d3f4f3c2" y="387.36916"/>
     <use style="fill:#0000ff;stroke:#0000ff;" x="352.364944" xlink:href="#m10d3f4f3c2" y="438.323535"/>
     <use style="fill:#0000ff;stroke:#0000ff;" x="314.510123" xlink:href="#m10d3f4f3c2" y="489.623881"/>
     <use style="fill:#0000ff;stroke:#0000ff;" x="362.86457" xlink:href="#m10d3f4f3c2" y="466.364492"/>
     <use style="fill:#0000ff;stroke:#0000ff;" x="350.702362" xlink:href="#m10d3f4f3c2" y="400.882444"/>
     <use style="fill:#0000ff;stroke:#0000ff;" x="361.452961" xlink:href="#m10d3f4f3c2" y="411.280319"/>
     <use style="fill:#0000ff;stroke:#0000ff;" x="372.219246" xlink:href="#m10d3f4f3c2" y="352.861455"/>
     <use style="fill:#0000ff;stroke:#0000ff;" x="337.64499" xlink:href="#m10d3f4f3c2" y="474.317253"/>
     <use style="fill:#0000ff;stroke:#0000ff;" x="352.22327" xlink:href="#m10d3f4f3c2" y="487.520548"/>
     <use style="fill:#0000ff;stroke:#0000ff;" x="330.028456" xlink:href="#m10d3f4f3c2" y="486.497546"/>
     <use style="fill:#0000ff;stroke:#0000ff;" x="315.752656" xlink:href="#m10d3f4f3c2" y="478.653437"/>
     <use style="fill:#0000ff;stroke:#0000ff;" x="360.866449" xlink:href="#m10d3f4f3c2" y="244.351095"/>
     <use style="fill:#0000ff;stroke:#0000ff;" x="322.369794" xlink:href="#m10d3f4f3c2" y="490.793718"/>
     <use style="fill:#0000ff;stroke:#0000ff;" x="319.198027" xlink:href="#m10d3f4f3c2" y="492.48"/>
     <use style="fill:#0000ff;stroke:#0000ff;" x="375.900018" xlink:href="#m10d3f4f3c2" y="452.552886"/>
     <use style="fill:#0000ff;stroke:#0000ff;" x="386.945275" xlink:href="#m10d3f4f3c2" y="323.29699"/>
     <use style="fill:#0000ff;stroke:#0000ff;" x="291.207319" xlink:href="#m10d3f4f3c2" y="492.202606"/>
     <use style="fill:#0000ff;stroke:#0000ff;" x="364.794337" xlink:href="#m10d3f4f3c2" y="446.281795"/>
     <use style="fill:#0000ff;stroke:#0000ff;" x="378.313575" xlink:href="#m10d3f4f3c2" y="439.221447"/>
     <use style="fill:#0000ff;stroke:#0000ff;" x="365.350313" xlink:href="#m10d3f4f3c2" y="489.696392"/>
     <use style="fill:#0000ff;stroke:#0000ff;" x="364.601353" xlink:href="#m10d3f4f3c2" y="479.568226"/>
     <use style="fill:#0000ff;stroke:#0000ff;" x="330.885935" xlink:href="#m10d3f4f3c2" y="479.413271"/>
     <use style="fill:#0000ff;stroke:#0000ff;" x="330.885935" xlink:href="#m10d3f4f3c2" y="481.01752"/>
     <use style="fill:#0000ff;stroke:#0000ff;" x="365.350313" xlink:href="#m10d3f4f3c2" y="491.733039"/>
     <use style="fill:#0000ff;stroke:#0000ff;" x="294.178726" xlink:href="#m10d3f4f3c2" y="491.206547"/>
     <use style="fill:#0000ff;stroke:#0000ff;" x="386.945275" xlink:href="#m10d3f4f3c2" y="467.53662"/>
     <use style="fill:#0000ff;stroke:#0000ff;" x="338.422521" xlink:href="#m10d3f4f3c2" y="296.592226"/>
     <use style="fill:#0000ff;stroke:#0000ff;" x="378.313575" xlink:href="#m10d3f4f3c2" y="463.026906"/>
     <use style="fill:#0000ff;stroke:#0000ff;" x="315.575663" xlink:href="#m10d3f4f3c2" y="429.625805"/>
     <use style="fill:#0000ff;stroke:#0000ff;" x="386.945275" xlink:href="#m10d3f4f3c2" y="413.429579"/>
     <use style="fill:#0000ff;stroke:#0000ff;" x="342.278084" xlink:href="#m10d3f4f3c2" y="487.194676"/>
     <use style="fill:#0000ff;stroke:#0000ff;" x="291.207319" xlink:href="#m10d3f4f3c2" y="492.109286"/>
     <use style="fill:#0000ff;stroke:#0000ff;" x="299.043583" xlink:href="#m10d3f4f3c2" y="485.159165"/>
     <use style="fill:#0000ff;stroke:#0000ff;" x="353.576848" xlink:href="#m10d3f4f3c2" y="416.962203"/>
     <use style="fill:#0000ff;stroke:#0000ff;" x="281.444524" xlink:href="#m10d3f4f3c2" y="491.825531"/>
     <use style="fill:#0000ff;stroke:#0000ff;" x="386.945275" xlink:href="#m10d3f4f3c2" y="451.044952"/>
     <use style="fill:#0000ff;stroke:#0000ff;" x="294.178726" xlink:href="#m10d3f4f3c2" y="491.987343"/>
     <use style="fill:#0000ff;stroke:#0000ff;" x="311.775036" xlink:href="#m10d3f4f3c2" y="418.908196"/>
     <use style="fill:#0000ff;stroke:#0000ff;" x="323.590948" xlink:href="#m10d3f4f3c2" y="416.583018"/>
     <use style="fill:#0000ff;stroke:#0000ff;" x="311.775036" xlink:href="#m10d3f4f3c2" y="418.056975"/>
     <use style="fill:#0000ff;stroke:#0000ff;" x="281.750417" xlink:href="#m10d3f4f3c2" y="489.314251"/>
     <use style="fill:#0000ff;stroke:#0000ff;" x="392.204812" xlink:href="#m10d3f4f3c2" y="89.396205"/>
     <use style="fill:#0000ff;stroke:#0000ff;" x="457.964979" xlink:href="#m10d3f4f3c2" y="478.489003"/>
     <use style="fill:#0000ff;stroke:#0000ff;" x="360.990903" xlink:href="#m10d3f4f3c2" y="235.41441"/>
     <use style="fill:#0000ff;stroke:#0000ff;" x="487.39909" xlink:href="#m10d3f4f3c2" y="415.168931"/>
     <use style="fill:#0000ff;stroke:#0000ff;" x="525.883702" xlink:href="#m10d3f4f3c2" y="429.816614"/>
     <use style="fill:#0000ff;stroke:#0000ff;" x="405.181001" xlink:href="#m10d3f4f3c2" y="249.007129"/>
     <use style="fill:#0000ff;stroke:#0000ff;" x="497.227001" xlink:href="#m10d3f4f3c2" y="424.272287"/>
     <use style="fill:#0000ff;stroke:#0000ff;" x="437.542772" xlink:href="#m10d3f4f3c2" y="409.736088"/>
     <use style="fill:#0000ff;stroke:#0000ff;" x="473.044551" xlink:href="#m10d3f4f3c2" y="423.886789"/>
     <use style="fill:#0000ff;stroke:#0000ff;" x="436.194708" xlink:href="#m10d3f4f3c2" y="369.656292"/>
     <use style="fill:#0000ff;stroke:#0000ff;" x="487.363252" xlink:href="#m10d3f4f3c2" y="418.29841"/>
     <use style="fill:#0000ff;stroke:#0000ff;" x="492.36956" xlink:href="#m10d3f4f3c2" y="471.74843"/>
     <use style="fill:#0000ff;stroke:#0000ff;" x="390.583827" xlink:href="#m10d3f4f3c2" y="89.28"/>
     <use style="fill:#0000ff;stroke:#0000ff;" x="393.563903" xlink:href="#m10d3f4f3c2" y="414.558504"/>
     <use style="fill:#0000ff;stroke:#0000ff;" x="393.368172" xlink:href="#m10d3f4f3c2" y="441.831218"/>
     <use style="fill:#0000ff;stroke:#0000ff;" x="482.034145" xlink:href="#m10d3f4f3c2" y="441.11127"/>
     <use style="fill:#0000ff;stroke:#0000ff;" x="445.261749" xlink:href="#m10d3f4f3c2" y="438.218128"/>
     <use style="fill:#0000ff;stroke:#0000ff;" x="380.277139" xlink:href="#m10d3f4f3c2" y="398.104096"/>
     <use style="fill:#0000ff;stroke:#0000ff;" x="420.979026" xlink:href="#m10d3f4f3c2" y="395.201019"/>
     <use style="fill:#0000ff;stroke:#0000ff;" x="479.046055" xlink:href="#m10d3f4f3c2" y="436.533635"/>
     <use style="fill:#0000ff;stroke:#0000ff;" x="415.937908" xlink:href="#m10d3f4f3c2" y="343.960291"/>
     <use style="fill:#0000ff;stroke:#0000ff;" x="372.587584" xlink:href="#m10d3f4f3c2" y="330.802025"/>
     <use style="fill:#0000ff;stroke:#0000ff;" x="370.285675" xlink:href="#m10d3f4f3c2" y="387.285039"/>
     <use style="fill:#0000ff;stroke:#0000ff;" x="435.531289" xlink:href="#m10d3f4f3c2" y="464.534531"/>
     <use style="fill:#0000ff;stroke:#0000ff;" x="451.905582" xlink:href="#m10d3f4f3c2" y="448.393416"/>
     <use style="fill:#0000ff;stroke:#0000ff;" x="385.52974" xlink:href="#m10d3f4f3c2" y="403.649566"/>
     <use style="fill:#0000ff;stroke:#0000ff;" x="449.656052" xlink:href="#m10d3f4f3c2" y="471.851005"/>
     <use style="fill:#0000ff;stroke:#0000ff;" x="485.678861" xlink:href="#m10d3f4f3c2" y="397.518522"/>
     <use style="fill:#0000ff;stroke:#0000ff;" x="417.606806" xlink:href="#m10d3f4f3c2" y="450.418522"/>
     <use style="fill:#0000ff;stroke:#0000ff;" x="408.166553" xlink:href="#m10d3f4f3c2" y="343.305286"/>
     <use style="fill:#0000ff;stroke:#0000ff;" x="367.189534" xlink:href="#m10d3f4f3c2" y="354.36065"/>
     <use style="fill:#0000ff;stroke:#0000ff;" x="432.572302" xlink:href="#m10d3f4f3c2" y="428.870458"/>
     <use style="fill:#0000ff;stroke:#0000ff;" x="511.360999" xlink:href="#m10d3f4f3c2" y="443.854647"/>
     <use style="fill:#0000ff;stroke:#0000ff;" x="471.947353" xlink:href="#m10d3f4f3c2" y="395.178614"/>
     <use style="fill:#0000ff;stroke:#0000ff;" x="461.623222" xlink:href="#m10d3f4f3c2" y="385.40377"/>
     <use style="fill:#0000ff;stroke:#0000ff;" x="529.051577" xlink:href="#m10d3f4f3c2" y="419.634975"/>
     <use style="fill:#0000ff;stroke:#0000ff;" x="420.978413" xlink:href="#m10d3f4f3c2" y="460.663963"/>
     <use style="fill:#0000ff;stroke:#0000ff;" x="452.98798" xlink:href="#m10d3f4f3c2" y="418.665734"/>
     <use style="fill:#0000ff;stroke:#0000ff;" x="454.598953" xlink:href="#m10d3f4f3c2" y="293.918293"/>
     <use style="fill:#0000ff;stroke:#0000ff;" x="400.406224" xlink:href="#m10d3f4f3c2" y="445.297311"/>
     <use style="fill:#0000ff;stroke:#0000ff;" x="435.808759" xlink:href="#m10d3f4f3c2" y="425.377976"/>
     <use style="fill:#0000ff;stroke:#0000ff;" x="499.819166" xlink:href="#m10d3f4f3c2" y="325.523625"/>
     <use style="fill:#0000ff;stroke:#0000ff;" x="396.502628" xlink:href="#m10d3f4f3c2" y="423.302945"/>
     <use style="fill:#0000ff;stroke:#0000ff;" x="412.642246" xlink:href="#m10d3f4f3c2" y="372.714033"/>
     <use style="fill:#0000ff;stroke:#0000ff;" x="348.037237" xlink:href="#m10d3f4f3c2" y="341.170545"/>
     <use style="fill:#0000ff;stroke:#0000ff;" x="449.217724" xlink:href="#m10d3f4f3c2" y="446.167942"/>
     <use style="fill:#0000ff;stroke:#0000ff;" x="473.990194" xlink:href="#m10d3f4f3c2" y="411.512872"/>
     <use style="fill:#0000ff;stroke:#0000ff;" x="474.304398" xlink:href="#m10d3f4f3c2" y="468.246999"/>
     <use style="fill:#0000ff;stroke:#0000ff;" x="434.218099" xlink:href="#m10d3f4f3c2" y="440.860721"/>
     <use style="fill:#0000ff;stroke:#0000ff;" x="377.323728" xlink:href="#m10d3f4f3c2" y="386.184144"/>
     <use style="fill:#0000ff;stroke:#0000ff;" x="496.041587" xlink:href="#m10d3f4f3c2" y="447.485379"/>
     <use style="fill:#0000ff;stroke:#0000ff;" x="475.504616" xlink:href="#m10d3f4f3c2" y="439.041798"/>
     <use style="fill:#0000ff;stroke:#0000ff;" x="408.43396" xlink:href="#m10d3f4f3c2" y="446.29824"/>
     <use style="fill:#0000ff;stroke:#0000ff;" x="302.386249" xlink:href="#m10d3f4f3c2" y="366.305279"/>
     <use style="fill:#0000ff;stroke:#0000ff;" x="479.973832" xlink:href="#m10d3f4f3c2" y="346.265133"/>
     <use style="fill:#0000ff;stroke:#0000ff;" x="467.500422" xlink:href="#m10d3f4f3c2" y="231.897242"/>
     <use style="fill:#0000ff;stroke:#0000ff;" x="483.720274" xlink:href="#m10d3f4f3c2" y="477.32116"/>
     <use style="fill:#0000ff;stroke:#0000ff;" x="498.148898" xlink:href="#m10d3f4f3c2" y="424.425753"/>
     <use style="fill:#0000ff;stroke:#0000ff;" x="413.4127" xlink:href="#m10d3f4f3c2" y="469.616439"/>
     <use style="fill:#0000ff;stroke:#0000ff;" x="417.790257" xlink:href="#m10d3f4f3c2" y="386.812617"/>
     <use style="fill:#0000ff;stroke:#0000ff;" x="462.322217" xlink:href="#m10d3f4f3c2" y="393.403141"/>
     <use style="fill:#0000ff;stroke:#0000ff;" x="399.336407" xlink:href="#m10d3f4f3c2" y="376.583617"/>
     <use style="fill:#0000ff;stroke:#0000ff;" x="402.162292" xlink:href="#m10d3f4f3c2" y="410.013812"/>
     <use style="fill:#0000ff;stroke:#0000ff;" x="304.976696" xlink:href="#m10d3f4f3c2" y="489.159502"/>
     <use style="fill:#0000ff;stroke:#0000ff;" x="490.180679" xlink:href="#m10d3f4f3c2" y="439.641041"/>
     <use style="fill:#0000ff;stroke:#0000ff;" x="433.679921" xlink:href="#m10d3f4f3c2" y="445.411695"/>
     <use style="fill:#0000ff;stroke:#0000ff;" x="459.698991" xlink:href="#m10d3f4f3c2" y="409.04953"/>
     <use style="fill:#0000ff;stroke:#0000ff;" x="395.049806" xlink:href="#m10d3f4f3c2" y="253.858206"/>
     <use style="fill:#0000ff;stroke:#0000ff;" x="403.965224" xlink:href="#m10d3f4f3c2" y="426.370697"/>
     <use style="fill:#0000ff;stroke:#0000ff;" x="380.722037" xlink:href="#m10d3f4f3c2" y="417.062135"/>
     <use style="fill:#0000ff;stroke:#0000ff;" x="501.640602" xlink:href="#m10d3f4f3c2" y="444.941656"/>
     <use style="fill:#0000ff;stroke:#0000ff;" x="439.768662" xlink:href="#m10d3f4f3c2" y="389.04353"/>
     <use style="fill:#0000ff;stroke:#0000ff;" x="444.409904" xlink:href="#m10d3f4f3c2" y="409.249908"/>
     <use style="fill:#0000ff;stroke:#0000ff;" x="380.488508" xlink:href="#m10d3f4f3c2" y="441.928902"/>
     <use style="fill:#0000ff;stroke:#0000ff;" x="395.049806" xlink:href="#m10d3f4f3c2" y="232.951583"/>
     <use style="fill:#0000ff;stroke:#0000ff;" x="434.522586" xlink:href="#m10d3f4f3c2" y="445.905928"/>
     <use style="fill:#0000ff;stroke:#0000ff;" x="485.893093" xlink:href="#m10d3f4f3c2" y="451.771379"/>
     <use style="fill:#0000ff;stroke:#0000ff;" x="519.515546" xlink:href="#m10d3f4f3c2" y="432.395778"/>
     <use style="fill:#0000ff;stroke:#0000ff;" x="360.946308" xlink:href="#m10d3f4f3c2" y="383.530602"/>
     <use style="fill:#0000ff;stroke:#0000ff;" x="357.113948" xlink:href="#m10d3f4f3c2" y="436.837682"/>
     <use style="fill:#0000ff;stroke:#0000ff;" x="455.290905" xlink:href="#m10d3f4f3c2" y="448.899558"/>
     <use style="fill:#0000ff;stroke:#0000ff;" x="529.051577" xlink:href="#m10d3f4f3c2" y="402.547251"/>
     <use style="fill:#0000ff;stroke:#0000ff;" x="529.051577" xlink:href="#m10d3f4f3c2" y="466.466776"/>
     <use style="fill:#0000ff;stroke:#0000ff;" x="523.615446" xlink:href="#m10d3f4f3c2" y="402.723727"/>
     <use style="fill:#0000ff;stroke:#0000ff;" x="409.343697" xlink:href="#m10d3f4f3c2" y="445.501052"/>
     <use style="fill:#0000ff;stroke:#0000ff;" x="418.201358" xlink:href="#m10d3f4f3c2" y="435.794412"/>
     <use style="fill:#0000ff;stroke:#0000ff;" x="487.164793" xlink:href="#m10d3f4f3c2" y="445.224695"/>
     <use style="fill:#0000ff;stroke:#0000ff;" x="473.044551" xlink:href="#m10d3f4f3c2" y="421.911274"/>
     <use style="fill:#0000ff;stroke:#0000ff;" x="418.201358" xlink:href="#m10d3f4f3c2" y="477.690152"/>
     <use style="fill:#0000ff;stroke:#0000ff;" x="529.051577" xlink:href="#m10d3f4f3c2" y="431.900444"/>
     <use style="fill:#0000ff;stroke:#0000ff;" x="459.698991" xlink:href="#m10d3f4f3c2" y="404.714902"/>
     <use style="fill:#0000ff;stroke:#0000ff;" x="424.64308" xlink:href="#m10d3f4f3c2" y="437.017941"/>
     <use style="fill:#0000ff;stroke:#0000ff;" x="470.850156" xlink:href="#m10d3f4f3c2" y="428.405933"/>
     <use style="fill:#0000ff;stroke:#0000ff;" x="419.711936" xlink:href="#m10d3f4f3c2" y="414.623295"/>
     <use style="fill:#0000ff;stroke:#0000ff;" x="397.627393" xlink:href="#m10d3f4f3c2" y="435.735012"/>
     <use style="fill:#0000ff;stroke:#0000ff;" x="460.404045" xlink:href="#m10d3f4f3c2" y="414.735341"/>
     <use style="fill:#0000ff;stroke:#0000ff;" x="364.402712" xlink:href="#m10d3f4f3c2" y="415.592339"/>
     <use style="fill:#0000ff;stroke:#0000ff;" x="388.940787" xlink:href="#m10d3f4f3c2" y="438.086577"/>
     <use style="fill:#0000ff;stroke:#0000ff;" x="468.845979" xlink:href="#m10d3f4f3c2" y="372.664326"/>
     <use style="fill:#0000ff;stroke:#0000ff;" x="461.195922" xlink:href="#m10d3f4f3c2" y="460.952468"/>
     <use style="fill:#0000ff;stroke:#0000ff;" x="379.967477" xlink:href="#m10d3f4f3c2" y="422.183832"/>
     <use style="fill:#0000ff;stroke:#0000ff;" x="481.59056" xlink:href="#m10d3f4f3c2" y="386.789134"/>
     <use style="fill:#0000ff;stroke:#0000ff;" x="370.696435" xlink:href="#m10d3f4f3c2" y="367.10455"/>
     <use style="fill:#0000ff;stroke:#0000ff;" x="425.839865" xlink:href="#m10d3f4f3c2" y="376.723187"/>
     <use style="fill:#0000ff;stroke:#0000ff;" x="478.33008" xlink:href="#m10d3f4f3c2" y="409.499522"/>
     <use style="fill:#0000ff;stroke:#0000ff;" x="443.144953" xlink:href="#m10d3f4f3c2" y="461.934079"/>
     <use style="fill:#0000ff;stroke:#0000ff;" x="474.086612" xlink:href="#m10d3f4f3c2" y="353.984854"/>
     <use style="fill:#0000ff;stroke:#0000ff;" x="398.62259" xlink:href="#m10d3f4f3c2" y="279.267215"/>
     <use style="fill:#0000ff;stroke:#0000ff;" x="444.409904" xlink:href="#m10d3f4f3c2" y="360.825244"/>
     <use style="fill:#0000ff;stroke:#0000ff;" x="484.975883" xlink:href="#m10d3f4f3c2" y="463.399931"/>
     <use style="fill:#0000ff;stroke:#0000ff;" x="448.095716" xlink:href="#m10d3f4f3c2" y="445.849648"/>
     <use style="fill:#0000ff;stroke:#0000ff;" x="452.225368" xlink:href="#m10d3f4f3c2" y="455.897724"/>
     <use style="fill:#0000ff;stroke:#0000ff;" x="388.829676" xlink:href="#m10d3f4f3c2" y="421.966039"/>
     <use style="fill:#0000ff;stroke:#0000ff;" x="470.12788" xlink:href="#m10d3f4f3c2" y="472.411492"/>
     <use style="fill:#0000ff;stroke:#0000ff;" x="469.777769" xlink:href="#m10d3f4f3c2" y="478.327526"/>
     <use style="fill:#0000ff;stroke:#0000ff;" x="363.043621" xlink:href="#m10d3f4f3c2" y="437.561463"/>
     <use style="fill:#0000ff;stroke:#0000ff;" x="469.405605" xlink:href="#m10d3f4f3c2" y="456.054917"/>
     <use style="fill:#0000ff;stroke:#0000ff;" x="398.044492" xlink:href="#m10d3f4f3c2" y="455.19312"/>
     <use style="fill:#0000ff;stroke:#0000ff;" x="440.838374" xlink:href="#m10d3f4f3c2" y="474.000576"/>
     <use style="fill:#0000ff;stroke:#0000ff;" x="470.715074" xlink:href="#m10d3f4f3c2" y="465.463091"/>
     <use style="fill:#0000ff;stroke:#0000ff;" x="492.204153" xlink:href="#m10d3f4f3c2" y="453.78639"/>
     <use style="fill:#0000ff;stroke:#0000ff;" x="459.683345" xlink:href="#m10d3f4f3c2" y="444.714309"/>
     <use style="fill:#0000ff;stroke:#0000ff;" x="405.61973" xlink:href="#m10d3f4f3c2" y="441.834251"/>
     <use style="fill:#0000ff;stroke:#0000ff;" x="439.303242" xlink:href="#m10d3f4f3c2" y="454.566374"/>
     <use style="fill:#0000ff;stroke:#0000ff;" x="496.177583" xlink:href="#m10d3f4f3c2" y="461.42282"/>
     <use style="fill:#0000ff;stroke:#0000ff;" x="356.863636" xlink:href="#m10d3f4f3c2" y="387.73543"/>
     <use style="fill:#0000ff;stroke:#0000ff;" x="525.029405" xlink:href="#m10d3f4f3c2" y="464.862333"/>
     <use style="fill:#0000ff;stroke:#0000ff;" x="529.051577" xlink:href="#m10d3f4f3c2" y="403.612967"/>
     <use style="fill:#0000ff;stroke:#0000ff;" x="435.087525" xlink:href="#m10d3f4f3c2" y="414.438297"/>
     <use style="fill:#0000ff;stroke:#0000ff;" x="421.905561" xlink:href="#m10d3f4f3c2" y="458.92542"/>
     <use style="fill:#0000ff;stroke:#0000ff;" x="506.285772" xlink:href="#m10d3f4f3c2" y="464.09649"/>
     <use style="fill:#0000ff;stroke:#0000ff;" x="383.339016" xlink:href="#m10d3f4f3c2" y="338.219295"/>
     <use style="fill:#0000ff;stroke:#0000ff;" x="502.444556" xlink:href="#m10d3f4f3c2" y="392.848889"/>
     <use style="fill:#0000ff;stroke:#0000ff;" x="452.454181" xlink:href="#m10d3f4f3c2" y="465.758714"/>
     <use style="fill:#0000ff;stroke:#0000ff;" x="481.59056" xlink:href="#m10d3f4f3c2" y="400.911807"/>
     <use style="fill:#0000ff;stroke:#0000ff;" x="439.062998" xlink:href="#m10d3f4f3c2" y="404.962448"/>
     <use style="fill:#0000ff;stroke:#0000ff;" x="423.357274" xlink:href="#m10d3f4f3c2" y="403.149522"/>
     <use style="fill:#0000ff;stroke:#0000ff;" x="467.500422" xlink:href="#m10d3f4f3c2" y="282.240602"/>
     <use style="fill:#0000ff;stroke:#0000ff;" x="389.629982" xlink:href="#m10d3f4f3c2" y="420.806447"/>
     <use style="fill:#0000ff;stroke:#0000ff;" x="363.641842" xlink:href="#m10d3f4f3c2" y="442.981562"/>
     <use style="fill:#0000ff;stroke:#0000ff;" x="481.59056" xlink:href="#m10d3f4f3c2" y="420.071454"/>
     <use style="fill:#0000ff;stroke:#0000ff;" x="459.266177" xlink:href="#m10d3f4f3c2" y="438.003211"/>
     <use style="fill:#0000ff;stroke:#0000ff;" x="452.0958" xlink:href="#m10d3f4f3c2" y="412.458164"/>
     <use style="fill:#0000ff;stroke:#0000ff;" x="469.322901" xlink:href="#m10d3f4f3c2" y="456.621338"/>
     <use style="fill:#0000ff;stroke:#0000ff;" x="397.784529" xlink:href="#m10d3f4f3c2" y="421.98084"/>
     <use style="fill:#0000ff;stroke:#0000ff;" x="418.168141" xlink:href="#m10d3f4f3c2" y="449.690489"/>
     <use style="fill:#0000ff;stroke:#0000ff;" x="495.170446" xlink:href="#m10d3f4f3c2" y="401.689304"/>
     <use style="fill:#0000ff;stroke:#0000ff;" x="397.911341" xlink:href="#m10d3f4f3c2" y="408.507039"/>
     <use style="fill:#0000ff;stroke:#0000ff;" x="401.508935" xlink:href="#m10d3f4f3c2" y="435.520081"/>
     <use style="fill:#0000ff;stroke:#0000ff;" x="523.615446" xlink:href="#m10d3f4f3c2" y="473.385439"/>
     <use style="fill:#0000ff;stroke:#0000ff;" x="459.698991" xlink:href="#m10d3f4f3c2" y="451.077642"/>
     <use style="fill:#0000ff;stroke:#0000ff;" x="431.625284" xlink:href="#m10d3f4f3c2" y="432.292915"/>
     <use style="fill:#0000ff;stroke:#0000ff;" x="474.585589" xlink:href="#m10d3f4f3c2" y="455.902544"/>
     <use style="fill:#0000ff;stroke:#0000ff;" x="418.926255" xlink:href="#m10d3f4f3c2" y="440.725419"/>
     <use style="fill:#0000ff;stroke:#0000ff;" x="474.580076" xlink:href="#m10d3f4f3c2" y="460.732467"/>
     <use style="fill:#0000ff;stroke:#0000ff;" x="420.34373" xlink:href="#m10d3f4f3c2" y="349.318676"/>
     <use style="fill:#0000ff;stroke:#0000ff;" x="415.937908" xlink:href="#m10d3f4f3c2" y="273.404911"/>
     <use style="fill:#0000ff;stroke:#0000ff;" x="392.604658" xlink:href="#m10d3f4f3c2" y="420.799933"/>
     <use style="fill:#0000ff;stroke:#0000ff;" x="364.585277" xlink:href="#m10d3f4f3c2" y="390.647375"/>
     <use style="fill:#0000ff;stroke:#0000ff;" x="487.39909" xlink:href="#m10d3f4f3c2" y="418.527357"/>
     <use style="fill:#0000ff;stroke:#0000ff;" x="424.957381" xlink:href="#m10d3f4f3c2" y="354.278932"/>
     <use style="fill:#0000ff;stroke:#0000ff;" x="473.991069" xlink:href="#m10d3f4f3c2" y="479.20462"/>
     <use style="fill:#0000ff;stroke:#0000ff;" x="463.929933" xlink:href="#m10d3f4f3c2" y="349.071843"/>
     <use style="fill:#0000ff;stroke:#0000ff;" x="497.874844" xlink:href="#m10d3f4f3c2" y="387.419433"/>
     <use style="fill:#0000ff;stroke:#0000ff;" x="420.978413" xlink:href="#m10d3f4f3c2" y="467.417756"/>
     <use style="fill:#0000ff;stroke:#0000ff;" x="472.162382" xlink:href="#m10d3f4f3c2" y="406.534788"/>
     <use style="fill:#0000ff;stroke:#0000ff;" x="427.741202" xlink:href="#m10d3f4f3c2" y="461.759876"/>
     <use style="fill:#0000ff;stroke:#0000ff;" x="372.846721" xlink:href="#m10d3f4f3c2" y="432.991531"/>
     <use style="fill:#0000ff;stroke:#0000ff;" x="432.150516" xlink:href="#m10d3f4f3c2" y="336.140413"/>
     <use style="fill:#0000ff;stroke:#0000ff;" x="469.179549" xlink:href="#m10d3f4f3c2" y="463.483855"/>
     <use style="fill:#0000ff;stroke:#0000ff;" x="384.211155" xlink:href="#m10d3f4f3c2" y="328.220893"/>
     <use style="fill:#0000ff;stroke:#0000ff;" x="473.044551" xlink:href="#m10d3f4f3c2" y="423.847641"/>
     <use style="fill:#0000ff;stroke:#0000ff;" x="474.41908" xlink:href="#m10d3f4f3c2" y="436.233113"/>
     <use style="fill:#0000ff;stroke:#0000ff;" x="255.830561" xlink:href="#m10d3f4f3c2" y="372.325293"/>
     <use style="fill:#0000ff;stroke:#0000ff;" x="531.371901" xlink:href="#m10d3f4f3c2" y="425.349507"/>
     <use style="fill:#0000ff;stroke:#0000ff;" x="381.508516" xlink:href="#m10d3f4f3c2" y="418.370479"/>
     <use style="fill:#0000ff;stroke:#0000ff;" x="472.399465" xlink:href="#m10d3f4f3c2" y="358.952128"/>
     <use style="fill:#0000ff;stroke:#0000ff;" x="479.973832" xlink:href="#m10d3f4f3c2" y="373.075065"/>
     <use style="fill:#0000ff;stroke:#0000ff;" x="397.127004" xlink:href="#m10d3f4f3c2" y="437.157698"/>
     <use style="fill:#0000ff;stroke:#0000ff;" x="416.95097" xlink:href="#m10d3f4f3c2" y="419.40127"/>
     <use style="fill:#0000ff;stroke:#0000ff;" x="404.37047" xlink:href="#m10d3f4f3c2" y="410.072947"/>
     <use style="fill:#0000ff;stroke:#0000ff;" x="405.61973" xlink:href="#m10d3f4f3c2" y="446.475741"/>
     <use style="fill:#0000ff;stroke:#0000ff;" x="425.983605" xlink:href="#m10d3f4f3c2" y="470.340153"/>
     <use style="fill:#0000ff;stroke:#0000ff;" x="370.285675" xlink:href="#m10d3f4f3c2" y="406.544768"/>
     <use style="fill:#0000ff;stroke:#0000ff;" x="466.97905" xlink:href="#m10d3f4f3c2" y="454.211673"/>
     <use style="fill:#0000ff;stroke:#0000ff;" x="453.332588" xlink:href="#m10d3f4f3c2" y="463.639334"/>
     <use style="fill:#0000ff;stroke:#0000ff;" x="454.468893" xlink:href="#m10d3f4f3c2" y="471.697975"/>
     <use style="fill:#0000ff;stroke:#0000ff;" x="479.06464" xlink:href="#m10d3f4f3c2" y="471.335872"/>
     <use style="fill:#0000ff;stroke:#0000ff;" x="458.339432" xlink:href="#m10d3f4f3c2" y="464.45926"/>
     <use style="fill:#0000ff;stroke:#0000ff;" x="459.698991" xlink:href="#m10d3f4f3c2" y="417.052731"/>
     <use style="fill:#0000ff;stroke:#0000ff;" x="523.615446" xlink:href="#m10d3f4f3c2" y="467.954972"/>
     <use style="fill:#0000ff;stroke:#0000ff;" x="366.430983" xlink:href="#m10d3f4f3c2" y="414.627596"/>
     <use style="fill:#0000ff;stroke:#0000ff;" x="436.492931" xlink:href="#m10d3f4f3c2" y="431.203021"/>
     <use style="fill:#0000ff;stroke:#0000ff;" x="491.782366" xlink:href="#m10d3f4f3c2" y="447.014872"/>
     <use style="fill:#0000ff;stroke:#0000ff;" x="383.074365" xlink:href="#m10d3f4f3c2" y="453.777583"/>
     <use style="fill:#0000ff;stroke:#0000ff;" x="461.652152" xlink:href="#m10d3f4f3c2" y="412.838525"/>
     <use style="fill:#0000ff;stroke:#0000ff;" x="376.394694" xlink:href="#m10d3f4f3c2" y="349.114415"/>
     <use style="fill:#0000ff;stroke:#0000ff;" x="391.712985" xlink:href="#m10d3f4f3c2" y="438.102478"/>
     <use style="fill:#0000ff;stroke:#0000ff;" x="462.129808" xlink:href="#m10d3f4f3c2" y="441.779188"/>
     <use style="fill:#0000ff;stroke:#0000ff;" x="448.58825" xlink:href="#m10d3f4f3c2" y="401.444532"/>
     <use style="fill:#0000ff;stroke:#0000ff;" x="399.87968" xlink:href="#m10d3f4f3c2" y="287.407959"/>
     <use style="fill:#0000ff;stroke:#0000ff;" x="480.953745" xlink:href="#m10d3f4f3c2" y="438.304943"/>
     <use style="fill:#0000ff;stroke:#0000ff;" x="383.942643" xlink:href="#m10d3f4f3c2" y="432.78298"/>
     <use style="fill:#0000ff;stroke:#0000ff;" x="415.759115" xlink:href="#m10d3f4f3c2" y="446.686699"/>
     <use style="fill:#0000ff;stroke:#0000ff;" x="462.129808" xlink:href="#m10d3f4f3c2" y="427.526539"/>
     <use style="fill:#0000ff;stroke:#0000ff;" x="436.194708" xlink:href="#m10d3f4f3c2" y="345.817824"/>
     <use style="fill:#0000ff;stroke:#0000ff;" x="460.925757" xlink:href="#m10d3f4f3c2" y="470.932157"/>
     <use style="fill:#0000ff;stroke:#0000ff;" x="391.524494" xlink:href="#m10d3f4f3c2" y="339.181449"/>
     <use style="fill:#0000ff;stroke:#0000ff;" x="466.329026" xlink:href="#m10d3f4f3c2" y="457.778881"/>
     <use style="fill:#0000ff;stroke:#0000ff;" x="465.21806" xlink:href="#m10d3f4f3c2" y="469.126438"/>
     <use style="fill:#0000ff;stroke:#0000ff;" x="445.587462" xlink:href="#m10d3f4f3c2" y="479.571621"/>
     <use style="fill:#0000ff;stroke:#0000ff;" x="450.074214" xlink:href="#m10d3f4f3c2" y="440.790377"/>
     <use style="fill:#0000ff;stroke:#0000ff;" x="411.505425" xlink:href="#m10d3f4f3c2" y="351.925476"/>
     <use style="fill:#0000ff;stroke:#0000ff;" x="472.184724" xlink:href="#m10d3f4f3c2" y="400.235358"/>
     <use style="fill:#0000ff;stroke:#0000ff;" x="377.38989" xlink:href="#m10d3f4f3c2" y="404.784963"/>
     <use style="fill:#0000ff;stroke:#0000ff;" x="278.540561" xlink:href="#m10d3f4f3c2" y="444.735291"/>
     <use style="fill:#0000ff;stroke:#0000ff;" x="410.884735" xlink:href="#m10d3f4f3c2" y="454.753506"/>
     <use style="fill:#0000ff;stroke:#0000ff;" x="396.3896" xlink:href="#m10d3f4f3c2" y="346.288601"/>
     <use style="fill:#0000ff;stroke:#0000ff;" x="422.060363" xlink:href="#m10d3f4f3c2" y="434.356775"/>
     <use style="fill:#0000ff;stroke:#0000ff;" x="478.436807" xlink:href="#m10d3f4f3c2" y="462.096154"/>
     <use style="fill:#0000ff;stroke:#0000ff;" x="463.182627" xlink:href="#m10d3f4f3c2" y="436.904426"/>
     <use style="fill:#0000ff;stroke:#0000ff;" x="450.703627" xlink:href="#m10d3f4f3c2" y="433.979474"/>
     <use style="fill:#0000ff;stroke:#0000ff;" x="405.27745" xlink:href="#m10d3f4f3c2" y="426.738763"/>
     <use style="fill:#0000ff;stroke:#0000ff;" x="406.410736" xlink:href="#m10d3f4f3c2" y="459.519101"/>
     <use style="fill:#0000ff;stroke:#0000ff;" x="415.915854" xlink:href="#m10d3f4f3c2" y="434.332851"/>
     <use style="fill:#0000ff;stroke:#0000ff;" x="366.368295" xlink:href="#m10d3f4f3c2" y="423.652031"/>
     <use style="fill:#0000ff;stroke:#0000ff;" x="496.040735" xlink:href="#m10d3f4f3c2" y="232.599844"/>
     <use style="fill:#0000ff;stroke:#0000ff;" x="445.416249" xlink:href="#m10d3f4f3c2" y="430.670439"/>
     <use style="fill:#0000ff;stroke:#0000ff;" x="495.211797" xlink:href="#m10d3f4f3c2" y="431.849521"/>
     <use style="fill:#0000ff;stroke:#0000ff;" x="345.403003" xlink:href="#m10d3f4f3c2" y="449.41764"/>
     <use style="fill:#0000ff;stroke:#0000ff;" x="426.278883" xlink:href="#m10d3f4f3c2" y="432.998649"/>
     <use style="fill:#0000ff;stroke:#0000ff;" x="416.95097" xlink:href="#m10d3f4f3c2" y="421.236838"/>
     <use style="fill:#0000ff;stroke:#0000ff;" x="392.710877" xlink:href="#m10d3f4f3c2" y="415.000817"/>
     <use style="fill:#0000ff;stroke:#0000ff;" x="492.055967" xlink:href="#m10d3f4f3c2" y="441.883448"/>
     <use style="fill:#0000ff;stroke:#0000ff;" x="459.698991" xlink:href="#m10d3f4f3c2" y="415.975631"/>
     <use style="fill:#0000ff;stroke:#0000ff;" x="432.732079" xlink:href="#m10d3f4f3c2" y="295.98154"/>
     <use style="fill:#0000ff;stroke:#0000ff;" x="470.472077" xlink:href="#m10d3f4f3c2" y="419.188052"/>
     <use style="fill:#0000ff;stroke:#0000ff;" x="444.409904" xlink:href="#m10d3f4f3c2" y="337.737934"/>
     <use style="fill:#0000ff;stroke:#0000ff;" x="481.98478" xlink:href="#m10d3f4f3c2" y="447.949322"/>
     <use style="fill:#0000ff;stroke:#0000ff;" x="370.252745" xlink:href="#m10d3f4f3c2" y="427.965997"/>
     <use style="fill:#0000ff;stroke:#0000ff;" x="461.103557" xlink:href="#m10d3f4f3c2" y="424.490216"/>
     <use style="fill:#0000ff;stroke:#0000ff;" x="386.911799" xlink:href="#m10d3f4f3c2" y="391.056929"/>
     <use style="fill:#0000ff;stroke:#0000ff;" x="435.546091" xlink:href="#m10d3f4f3c2" y="463.415178"/>
     <use style="fill:#0000ff;stroke:#0000ff;" x="452.550028" xlink:href="#m10d3f4f3c2" y="414.7256"/>
     <use style="fill:#0000ff;stroke:#0000ff;" x="442.939349" xlink:href="#m10d3f4f3c2" y="225.975764"/>
     <use style="fill:#0000ff;stroke:#0000ff;" x="372.587584" xlink:href="#m10d3f4f3c2" y="160.043924"/>
     <use style="fill:#0000ff;stroke:#0000ff;" x="372.155126" xlink:href="#m10d3f4f3c2" y="325.597096"/>
     <use style="fill:#0000ff;stroke:#0000ff;" x="361.377787" xlink:href="#m10d3f4f3c2" y="423.296598"/>
     <use style="fill:#0000ff;stroke:#0000ff;" x="377.061834" xlink:href="#m10d3f4f3c2" y="439.618806"/>
     <use style="fill:#0000ff;stroke:#0000ff;" x="426.041497" xlink:href="#m10d3f4f3c2" y="440.62707"/>
     <use style="fill:#0000ff;stroke:#0000ff;" x="503.214027" xlink:href="#m10d3f4f3c2" y="459.38807"/>
     <use style="fill:#0000ff;stroke:#0000ff;" x="409.082646" xlink:href="#m10d3f4f3c2" y="448.845618"/>
     <use style="fill:#0000ff;stroke:#0000ff;" x="425.839865" xlink:href="#m10d3f4f3c2" y="419.229473"/>
     <use style="fill:#0000ff;stroke:#0000ff;" x="498.462568" xlink:href="#m10d3f4f3c2" y="405.663928"/>
     <use style="fill:#0000ff;stroke:#0000ff;" x="470.486261" xlink:href="#m10d3f4f3c2" y="464.407925"/>
     <use style="fill:#0000ff;stroke:#0000ff;" x="380.168795" xlink:href="#m10d3f4f3c2" y="445.342105"/>
     <use style="fill:#0000ff;stroke:#0000ff;" x="387.670355" xlink:href="#m10d3f4f3c2" y="408.288417"/>
     <use style="fill:#0000ff;stroke:#0000ff;" x="500.692271" xlink:href="#m10d3f4f3c2" y="453.011854"/>
     <use style="fill:#0000ff;stroke:#0000ff;" x="409.125911" xlink:href="#m10d3f4f3c2" y="408.695392"/>
     <use style="fill:#0000ff;stroke:#0000ff;" x="496.040735" xlink:href="#m10d3f4f3c2" y="346.793672"/>
     <use style="fill:#0000ff;stroke:#0000ff;" x="451.128171" xlink:href="#m10d3f4f3c2" y="444.608005"/>
     <use style="fill:#0000ff;stroke:#0000ff;" x="471.947353" xlink:href="#m10d3f4f3c2" y="401.726784"/>
     <use style="fill:#0000ff;stroke:#0000ff;" x="379.899369" xlink:href="#m10d3f4f3c2" y="200.931651"/>
     <use style="fill:#0000ff;stroke:#0000ff;" x="505.932904" xlink:href="#m10d3f4f3c2" y="462.599221"/>
     <use style="fill:#0000ff;stroke:#0000ff;" x="472.399465" xlink:href="#m10d3f4f3c2" y="253.194453"/>
     <use style="fill:#0000ff;stroke:#0000ff;" x="452.702291" xlink:href="#m10d3f4f3c2" y="434.768333"/>
     <use style="fill:#0000ff;stroke:#0000ff;" x="390.143308" xlink:href="#m10d3f4f3c2" y="407.942139"/>
     <use style="fill:#0000ff;stroke:#0000ff;" x="346.818061" xlink:href="#m10d3f4f3c2" y="451.42164"/>
     <use style="fill:#0000ff;stroke:#0000ff;" x="472.225788" xlink:href="#m10d3f4f3c2" y="453.132027"/>
     <use style="fill:#0000ff;stroke:#0000ff;" x="463.448209" xlink:href="#m10d3f4f3c2" y="459.830374"/>
     <use style="fill:#0000ff;stroke:#0000ff;" x="464.16811" xlink:href="#m10d3f4f3c2" y="442.929877"/>
     <use style="fill:#0000ff;stroke:#0000ff;" x="474.086612" xlink:href="#m10d3f4f3c2" y="361.108622"/>
     <use style="fill:#0000ff;stroke:#0000ff;" x="413.307942" xlink:href="#m10d3f4f3c2" y="424.088965"/>
     <use style="fill:#0000ff;stroke:#0000ff;" x="404.271226" xlink:href="#m10d3f4f3c2" y="357.273432"/>
     <use style="fill:#0000ff;stroke:#0000ff;" x="472.333302" xlink:href="#m10d3f4f3c2" y="340.20021"/>
     <use style="fill:#0000ff;stroke:#0000ff;" x="460.404045" xlink:href="#m10d3f4f3c2" y="394.524383"/>
     <use style="fill:#0000ff;stroke:#0000ff;" x="381.688166" xlink:href="#m10d3f4f3c2" y="457.824779"/>
     <use style="fill:#0000ff;stroke:#0000ff;" x="473.968071" xlink:href="#m10d3f4f3c2" y="457.679566"/>
     <use style="fill:#0000ff;stroke:#0000ff;" x="474.505643" xlink:href="#m10d3f4f3c2" y="464.365539"/>
     <use style="fill:#0000ff;stroke:#0000ff;" x="369.568498" xlink:href="#m10d3f4f3c2" y="439.13039"/>
     <use style="fill:#0000ff;stroke:#0000ff;" x="444.864773" xlink:href="#m10d3f4f3c2" y="381.497014"/>
     <use style="fill:#0000ff;stroke:#0000ff;" x="385.059245" xlink:href="#m10d3f4f3c2" y="407.155544"/>
     <use style="fill:#0000ff;stroke:#0000ff;" x="481.226666" xlink:href="#m10d3f4f3c2" y="457.162548"/>
     <use style="fill:#0000ff;stroke:#0000ff;" x="520.612696" xlink:href="#m10d3f4f3c2" y="390.608169"/>
     <use style="fill:#0000ff;stroke:#0000ff;" x="520.612696" xlink:href="#m10d3f4f3c2" y="475.501622"/>
    </g>
   </g>
   <g id="patch_3">
    <path d="M 144 512.64 
L 144 69.12 
" style="fill:none;stroke:#000000;stroke-linecap:square;stroke-linejoin:miter;stroke-width:0.8;"/>
   </g>
   <g id="patch_4">
    <path d="M 549.818182 512.64 
L 549.818182 69.12 
" style="fill:none;stroke:#000000;stroke-linecap:square;stroke-linejoin:miter;stroke-width:0.8;"/>
   </g>
   <g id="patch_5">
    <path d="M 144 512.64 
L 549.818182 512.64 
" style="fill:none;stroke:#000000;stroke-linecap:square;stroke-linejoin:miter;stroke-width:0.8;"/>
   </g>
   <g id="patch_6">
    <path d="M 144 69.12 
L 549.818182 69.12 
" style="fill:none;stroke:#000000;stroke-linecap:square;stroke-linejoin:miter;stroke-width:0.8;"/>
   </g>
   <g id="text_19">
    <!-- Temperature vs Population Density -->
    <g transform="translate(240.826278 63.12)scale(0.12 -0.12)">
     <use xlink:href="#DejaVuSans-54"/>
     <use x="60.818359" xlink:href="#DejaVuSans-65"/>
     <use x="122.341797" xlink:href="#DejaVuSans-6d"/>
     <use x="219.753906" xlink:href="#DejaVuSans-70"/>
     <use x="283.230469" xlink:href="#DejaVuSans-65"/>
     <use x="344.753906" xlink:href="#DejaVuSans-72"/>
     <use x="385.867188" xlink:href="#DejaVuSans-61"/>
     <use x="447.146484" xlink:href="#DejaVuSans-74"/>
     <use x="486.355469" xlink:href="#DejaVuSans-75"/>
     <use x="549.734375" xlink:href="#DejaVuSans-72"/>
     <use x="590.816406" xlink:href="#DejaVuSans-65"/>
     <use x="652.339844" xlink:href="#DejaVuSans-20"/>
     <use x="684.126953" xlink:href="#DejaVuSans-76"/>
     <use x="743.306641" xlink:href="#DejaVuSans-73"/>
     <use x="795.40625" xlink:href="#DejaVuSans-20"/>
     <use x="827.193359" xlink:href="#DejaVuSans-50"/>
     <use x="887.449219" xlink:href="#DejaVuSans-6f"/>
     <use x="948.630859" xlink:href="#DejaVuSans-70"/>
     <use x="1012.107422" xlink:href="#DejaVuSans-75"/>
     <use x="1075.486328" xlink:href="#DejaVuSans-6c"/>
     <use x="1103.269531" xlink:href="#DejaVuSans-61"/>
     <use x="1164.548828" xlink:href="#DejaVuSans-74"/>
     <use x="1203.757812" xlink:href="#DejaVuSans-69"/>
     <use x="1231.541016" xlink:href="#DejaVuSans-6f"/>
     <use x="1292.722656" xlink:href="#DejaVuSans-6e"/>
     <use x="1356.101562" xlink:href="#DejaVuSans-20"/>
     <use x="1387.888672" xlink:href="#DejaVuSans-44"/>
     <use x="1464.890625" xlink:href="#DejaVuSans-65"/>
     <use x="1526.414062" xlink:href="#DejaVuSans-6e"/>
     <use x="1589.792969" xlink:href="#DejaVuSans-73"/>
     <use x="1641.892578" xlink:href="#DejaVuSans-69"/>
     <use x="1669.675781" xlink:href="#DejaVuSans-74"/>
     <use x="1708.884766" xlink:href="#DejaVuSans-79"/>
    </g>
   </g>
  </g>
 </g>
 <defs>
  <clipPath id="p47c0339876">
   <rect height="443.52" width="405.818182" x="144" y="69.12"/>
  </clipPath>
 </defs>
</svg>
